Coordinates
version=1
nRows=26
nColumns=27
inDegrees=yes

Units are S.I. units (second, meters, Newtons, ...)
If the header above contains a line with 'inDegrees', this indicates whether rotational values are in degrees (yes) or radians (no).

endheader
time	pelvis_rotation	pelvis_tilt	pelvis_list	pelvis_tx	pelvis_ty	pelvis_tz	hip_flexion_r	hip_adduction_r	hip_rotation_r	knee_angle_r	knee_rotation_r	knee_adduction_r	knee_angle_r_beta	ankle_angle_r	subtalar_angle_r	mtp_angle_r	hip_flexion_l	hip_adduction_l	hip_rotation_l	knee_angle_l	knee_rotation_l	knee_adduction_l	knee_angle_l_beta	ankle_angle_l	subtalar_angle_l	mtp_angle_l
      3.60000000	      2.59175483	    -17.83231950	     -4.68888621	      0.06398801	      0.82568490	     -1.14329412	     30.61586167	    -21.67318697	    -28.26330119	     25.24300144	      0.00000000	   -719.33222599	      0.44057349	      0.21100192	      0.00000000	      0.00000000	     38.92210138	    -26.86089682	     -1.93282505	     25.19761586	      0.00000000	      5.14831918	      0.43978136	     -0.56708352	      0.00000000	      0.00000000
      3.60500000	      3.91352433	    -18.36396325	     -5.05668105	      0.06333587	      0.82546500	     -1.14282353	     30.37374370	    -21.83223588	    -30.61082038	     25.35506329	      0.00000000	   -718.59007442	      0.44252934	      0.21219860	      0.00000000	      0.00000000	     40.50752387	    -26.52221788	      0.58818141	     25.50392034	      0.00000000	      5.78229817	      0.44512738	     -0.75568433	      0.00000000	      0.00000000
      3.61000000	      3.82892743	    -18.62945712	     -4.71661153	      0.06221685	      0.82501980	     -1.14309922	     31.16756154	    -22.35464862	    -30.27707185	     26.01662561	      0.00000000	   -718.45812859	      0.45407578	      0.35447979	      0.00000000	      0.00000000	     40.81404886	    -26.25125862	      0.33857311	     25.65711036	      0.00000000	      5.72156434	      0.44780105	     -0.80452711	      0.00000000	      0.00000000
      3.61500000	      3.80048031	    -18.93401138	     -4.64867634	      0.06106519	      0.82463082	     -1.14314465	     31.81864379	    -22.55604473	    -30.08194627	     26.45404218	      0.00000000	   -718.37137462	      0.46171014	      0.40407541	      0.00000000	      0.00000000	     41.34454986	    -26.19045834	      0.36360009	     25.90087175	      0.00000000	      5.62287030	      0.45205549	     -0.81197909	      0.00000000	      0.00000000
      3.62000000	      3.71881613	    -19.23347592	     -4.38794781	      0.05980603	      0.82415929	     -1.14336145	     32.62955863	    -22.97581305	    -29.71786269	     27.06032169	      0.00000000	   -718.26759199	      0.47229171	      0.51306679	      0.00000000	      0.00000000	     41.75142021	    -25.99071349	      0.17903059	     26.09817952	      0.00000000	      5.53580308	      0.45549916	     -0.84259388	      0.00000000	      0.00000000
      3.62500000	      2.59688719	    -19.51691251	     -3.78317543	      0.05799875	      0.82347358	     -1.14393047	     34.36416444	    -23.39154467	    -27.33914690	     27.96759537	      0.00000000	   -718.72190564	      0.48812662	      0.68079748	      0.00000000	      0.00000000	     41.54932219	    -26.01374064	     -1.85865693	     26.29202197	      0.00000000	      4.86196948	      0.45888235	     -0.68059337	      0.00000000	      0.00000000
      3.63000000	      3.50066218	    -19.84139690	     -3.88825028	      0.05720713	      0.82314394	     -1.14376683	     34.31576652	    -23.75741145	    -28.87399470	     28.26160218	      0.00000000	   -718.08255521	      0.49325801	      0.68110067	      0.00000000	      0.00000000	     42.58518823	    -25.65470417	     -0.29187997	     26.52464773	      0.00000000	      5.29328217	      0.46294244	     -0.88895614	      0.00000000	      0.00000000
      3.63500000	      3.28634127	    -20.13865990	     -3.50403503	      0.05577092	      0.82256230	     -1.14408423	     35.32690454	    -24.24816813	    -28.15584508	     28.95979604	      0.00000000	   -718.04534798	      0.50544379	      0.76281648	      0.00000000	      0.00000000	     42.88413662	    -25.43510638	     -0.78263245	     26.70515800	      0.00000000	      5.14625942	      0.46609293	     -0.92001780	      0.00000000	      0.00000000
      3.64000000	      2.00995528	    -20.45275368	     -2.82018132	      0.05361640	      0.82173245	     -1.14468277	     37.33525113	    -24.60418125	    -25.37279564	     29.94650652	      0.00000000	   -718.54101315	      0.52266514	      0.91558047	      0.00000000	      0.00000000	     42.64223257	    -25.48718424	     -3.05447957	     26.92697366	      0.00000000	      4.47203583	      0.46996435	     -0.77823027	      0.00000000	      0.00000000
      3.64500000	      1.67939094	    -20.71983267	     -2.30456697	      0.05209259	      0.82102197	     -1.14504139	     38.51299130	    -25.13960719	    -24.38803453	     30.73668127	      0.00000000	   -718.47373824	      0.53645629	      1.03987740	      0.00000000	      0.00000000	     42.79161667	    -25.23456370	     -3.82327966	     27.07632830	      0.00000000	      4.27462704	      0.47257108	     -0.82392433	      0.00000000	      0.00000000
      3.65000000	      2.95714323	    -21.03735260	     -2.65428370	      0.05153422	      0.82064255	     -1.14470876	     38.03791562	    -25.47659855	    -26.71199361	     30.87657517	      0.00000000	   -717.69089812	      0.53889790	      1.04870204	      0.00000000	      0.00000000	     44.16726061	    -24.94126197	     -1.72596753	     27.45258112	      0.00000000	      4.57904222	      0.47913793	     -0.94940209	      0.00000000	      0.00000000
      3.65500000	      2.45931636	    -21.29124861	     -2.03200572	      0.04992008	      0.81985348	     -1.14516573	     39.39820593	    -26.05702435	    -25.37494420	     31.73094959	      0.00000000	   -717.68966082	      0.55380955	      1.16431356	      0.00000000	      0.00000000	     44.17832419	    -24.69375289	     -2.83696499	     27.59166948	      0.00000000	      4.30890114	      0.48156548	     -0.93909556	      0.00000000	      0.00000000
      3.66000000	      1.56434030	    -21.77956566	     -1.63030290	      0.04755099	      0.81888517	     -1.14543374	     41.26603385	    -26.16179573	    -23.21112919	     32.56406246	      0.00000000	   -718.11846347	      0.56835011	      1.21588081	      0.00000000	      0.00000000	     44.52987080	    -24.84708003	     -4.30414730	     28.00027034	      0.00000000	      3.76684354	      0.48869691	     -0.84554341	      0.00000000	      0.00000000
      3.66500000	      1.32271174	    -21.52651050	     -1.08342662	      0.04713955	      0.81837583	     -1.14577747	     41.68926199	    -26.71872704	    -22.67125906	     33.10909705	      0.00000000	   -717.72916488	      0.57786276	      1.23884232	      0.00000000	      0.00000000	     43.96187857	    -24.60857003	     -5.34109090	     27.91766208	      0.00000000	      3.49689220	      0.48725512	     -0.96856773	      0.00000000	      0.00000000
      3.67000000	      2.64680508	    -22.17392819	     -1.41372653	      0.04578222	      0.81756462	     -1.14546701	     41.70149268	    -27.19748185	    -24.81095871	     33.50328426	      0.00000000	   -717.07919392	      0.58474262	      1.40699361	      0.00000000	      0.00000000	     45.91604405	    -24.27084823	     -3.11877141	     28.58253447	      0.00000000	      3.65634300	      0.49885934	     -0.95945443	      0.00000000	      0.00000000
      3.67500000	      2.59787753	    -22.38257091	     -1.11805173	      0.04446058	      0.81668813	     -1.14561008	     42.52003183	    -27.61737721	    -24.40786102	     34.14564330	      0.00000000	   -716.87163148	      0.59595390	      1.49637038	      0.00000000	      0.00000000	     46.29992277	    -24.13443956	     -3.48410011	     28.89582907	      0.00000000	      3.36092992	      0.50432736	     -0.90241700	      0.00000000	      0.00000000
      3.68000000	      2.51414116	    -22.53052863	     -0.80837410	      0.04328374	      0.81581592	     -1.14574083	     43.29117796	    -28.01916587	    -23.95454942	     34.77145625	      0.00000000	   -716.65624734	      0.60687640	      1.60724260	      0.00000000	      0.00000000	     46.58627664	    -24.03333482	     -4.00154743	     29.19519756	      0.00000000	      3.00831736	      0.50955232	     -0.88529902	      0.00000000	      0.00000000
      3.68500000	      2.79581821	    -22.77103663	     -0.62559964	      0.04205487	      0.81487649	     -1.14579915	     43.85252921	    -28.49723091	    -24.16380029	     35.35600184	      0.00000000	   -716.30269862	      0.61707864	      1.72550774	      0.00000000	      0.00000000	     47.24610191	    -23.82865327	     -3.83163672	     29.58417414	      0.00000000	      2.78607216	      0.51634125	     -0.87360978	      0.00000000	      0.00000000
      3.69000000	      2.63957680	    -22.84741468	     -0.23392403	      0.04094928	      0.81388531	     -1.14596277	     44.66308254	    -28.93742131	    -23.54917393	     36.02585721	      0.00000000	   -716.06362329	      0.62876982	      1.85345702	      0.00000000	      0.00000000	     47.38215875	    -23.71906667	     -4.53714903	     29.88099874	      0.00000000	      2.37134499	      0.52152181	     -0.82164802	      0.00000000	      0.00000000
      3.69500000	      1.98790311	    -22.96484839	      0.49691947	      0.03937560	      0.81266962	     -1.14637119	     46.18801645	    -29.41188992	    -21.74080283	     36.93611530	      0.00000000	   -716.08247788	      0.64465682	      1.95270715	      0.00000000	      0.00000000	     47.19363224	    -23.59737787	     -6.12478636	     30.13196190	      0.00000000	      1.87446868	      0.52590195	     -0.74492720	      0.00000000	      0.00000000
      3.70000000	      2.75558822	    -23.02272320	      0.31474456	      0.03891659	      0.81175530	     -1.14614933	     45.88578644	    -29.84371332	    -23.17748277	     37.28011585	      0.00000000	   -715.42834678	      0.65066077	      2.10466436	      0.00000000	      0.00000000	     48.05252879	    -23.48616137	     -5.19097538	     30.63143974	      0.00000000	      1.61975086	      0.53461948	     -0.66276031	      0.00000000	      0.00000000
      3.70500000	      2.85298511	    -23.09604175	      0.60773850	      0.03792813	      0.81061323	     -1.14624258	     46.48219724	    -30.33576376	    -23.03158909	     37.92594580	      0.00000000	   -715.05409541	      0.66193263	      2.24427634	      0.00000000	      0.00000000	     48.39695856	    -23.34641850	     -5.49019074	     31.02422839	      0.00000000	      1.22580621	      0.54147493	     -0.58251037	      0.00000000	      0.00000000
      3.71000000	      2.28299089	    -23.08298948	      1.39340855	      0.03668226	      0.80921169	     -1.14665446	     47.88324630	    -30.89383347	    -21.36006920	     38.87812109	      0.00000000	   -714.89293246	      0.67855122	      2.40830130	      0.00000000	      0.00000000	     48.07431616	    -23.19598285	     -7.09488408	     31.28650186	      0.00000000	      0.67899246	      0.54605247	     -0.51413075	      0.00000000	      0.00000000
      3.71500000	      3.11967777	    -23.13831796	      1.13287682	      0.03624088	      0.80814748	     -1.14640643	     47.47145656	    -31.32532588	    -22.93442005	     39.20157471	      0.00000000	   -714.25023366	      0.68419655	      2.55629304	      0.00000000	      0.00000000	     49.06167668	    -23.11632765	     -6.02894034	     31.89469418	      0.00000000	      0.35811159	      0.55666743	     -0.38068999	      0.00000000	      0.00000000
      3.72000000	      2.92807778	    -23.12211382	      1.67317684	      0.03525377	      0.80671831	     -1.14665119	     48.41755053	    -31.88118552	    -22.07722084	     40.01630959	      0.00000000	   -713.94901301	      0.69841636	      2.73836941	      0.00000000	      0.00000000	     49.06456856	    -22.97886556	     -6.95487663	     32.26942290	      0.00000000	     -0.15606025	      0.56320768	     -0.26515631	      0.00000000	      0.00000000
      3.72500000	      3.27708152	    -23.06972314	      1.61374930	      0.03472005	      0.80548227	     -1.14654408	     48.40608615	    -32.22821761	    -22.68932065	     40.47168236	      0.00000000	   -713.46693429	      0.70636411	      2.87616803	      0.00000000	      0.00000000	     49.60022175	    -23.01246910	     -6.71321030	     32.82797441	      0.00000000	     -0.60743890	      0.57295624	     -0.12179666	      0.00000000	      0.00000000
